<svg width="180" height="178" viewBox="0 0 180 178" fill="none" xmlns="http://www.w3.org/2000/svg">
<path d="M90.25 69.999C89.6106 72.5576 90.1701 73.5971 92.2481 73.5971C93.447 73.5971 93.7667 73.0374 93.7667 70.7986C93.7667 68.5597 93.447 68 92.2481 68C91.289 68 90.5697 68.7196 90.25 69.999Z" stroke="white" stroke-width="0.24795"/>
<path d="M90.25 69.999C89.6106 72.5576 90.1701 73.5971 92.2481 73.5971C93.447 73.5971 93.7667 73.0374 93.7667 70.7986C93.7667 68.5597 93.447 68 92.2481 68C91.289 68 90.5697 68.7196 90.25 69.999Z" stroke="#6C6C6C" stroke-width="0.24795"/>
<path d="M17.1011 95.7896C16.0105 99.6061 16.8371 103.288 19.2552 106.235C22.7839 110.464 41.6112 126.71 45.2586 128.607C46.9695 129.563 49.176 130.315 50.0782 130.252C50.9804 130.189 52.2528 130.553 52.9169 131.129C53.5206 131.654 54.3259 131.824 54.588 131.522C54.9024 131.16 55.4743 131.233 55.8969 131.6C56.3798 132.02 58.1159 131.728 59.8806 131.037C61.5325 130.355 63.6514 129.866 64.5012 129.863C66.7806 130.043 77.8832 117.137 77.3333 114.966C77.1568 114.072 77.3392 112.642 77.779 111.648C78.457 110.014 78.2653 103.284 77.4035 98.301C77.2111 97.1812 76.3069 94.8079 75.5553 92.9907C74.6908 91.1814 74.2251 89.4007 74.5396 89.0386C74.854 88.6766 74.8189 87.3757 74.3406 86.2193C73.8622 85.0628 73.9843 83.5809 74.5084 82.9775C75.0325 82.374 75.2103 81.6816 74.9688 81.4718C74.7273 81.2621 75.2083 79.245 76.072 77.0311C78.2313 71.4962 86.0435 63.3546 90.6926 61.7817C92.4048 61.1515 94.1615 60.3483 94.5808 59.8655C94.9476 59.4431 96.3978 59.1147 97.8195 59.1849C99.2412 59.2551 100.639 58.987 100.953 58.6249C101.268 58.2629 102.508 58.1758 103.668 58.5478C104.828 58.9197 106.068 58.8327 106.487 58.3499C106.854 57.9275 108.095 57.8404 109.202 58.2727C110.309 58.705 111.445 58.7387 111.76 58.3766C112.022 58.0749 112.525 57.9829 112.827 58.245C113.129 58.5072 112.008 60.2858 110.383 62.1565C107.807 65.0006 107.472 65.8742 107.93 67.542C108.175 68.6015 108.097 69.9103 107.73 70.3327C107.363 70.7551 107.294 72.1767 107.667 73.4538C107.98 74.6785 108.039 76.3177 107.644 77.1388C107.361 77.9519 107.554 79.0718 108.157 79.5961C108.821 80.1728 109.231 81.164 109.106 81.7961C108.77 84.2564 111.151 87.4893 117.309 92.8371C122.863 97.6607 123.873 98.3265 125.903 98.184C127.144 98.0969 129.222 98.6311 130.458 99.2811C131.814 100.036 133.53 100.255 135.077 99.6935C136.459 99.1999 137.864 99.0446 138.287 99.4116C138.71 99.7786 139.898 99.7519 140.941 99.282C141.993 98.9249 143.278 98.6647 143.91 98.7903C144.482 98.8635 146.246 98.173 147.935 97.2045C149.51 96.244 151.057 95.682 151.359 95.9442C151.601 96.1539 154.672 93.105 158.131 89.1223L164.368 81.9413L164.142 77.9338L163.803 73.9343L129.452 44.1016C110.617 27.7434 94.5826 14.1354 93.8821 13.8445C93.1815 13.5537 92.3397 13.6694 92.0776 13.9712C91.8156 14.2729 90.5306 14.5331 89.2217 14.4549L86.9502 14.3877L52.2924 54.0499C26.6567 83.4457 17.5012 94.2315 17.1011 95.7896Z" stroke="white" stroke-width="2"/>
<path d="M17.1011 95.7896C16.0105 99.6061 16.8371 103.288 19.2552 106.235C22.7839 110.464 41.6112 126.71 45.2586 128.607C46.9695 129.563 49.176 130.315 50.0782 130.252C50.9804 130.189 52.2528 130.553 52.9169 131.129C53.5206 131.654 54.3259 131.824 54.588 131.522C54.9024 131.16 55.4743 131.233 55.8969 131.6C56.3798 132.02 58.1159 131.728 59.8806 131.037C61.5325 130.355 63.6514 129.866 64.5012 129.863C66.7806 130.043 77.8832 117.137 77.3333 114.966C77.1568 114.072 77.3392 112.642 77.779 111.648C78.457 110.014 78.2653 103.284 77.4035 98.301C77.2111 97.1812 76.3069 94.8079 75.5553 92.9907C74.6908 91.1814 74.2251 89.4007 74.5396 89.0386C74.854 88.6766 74.8189 87.3757 74.3406 86.2193C73.8622 85.0628 73.9843 83.5809 74.5084 82.9775C75.0325 82.374 75.2103 81.6816 74.9688 81.4718C74.7273 81.2621 75.2083 79.245 76.072 77.0311C78.2313 71.4962 86.0435 63.3546 90.6926 61.7817C92.4048 61.1515 94.1615 60.3483 94.5808 59.8655C94.9476 59.4431 96.3978 59.1147 97.8195 59.1849C99.2412 59.2551 100.639 58.987 100.953 58.6249C101.268 58.2629 102.508 58.1758 103.668 58.5478C104.828 58.9197 106.068 58.8327 106.487 58.3499C106.854 57.9275 108.095 57.8404 109.202 58.2727C110.309 58.705 111.445 58.7387 111.76 58.3766C112.022 58.0749 112.525 57.9829 112.827 58.245C113.129 58.5072 112.008 60.2858 110.383 62.1565C107.807 65.0006 107.472 65.8742 107.93 67.542C108.175 68.6015 108.097 69.9103 107.73 70.3327C107.363 70.7551 107.294 72.1767 107.667 73.4538C107.98 74.6785 108.039 76.3177 107.644 77.1388C107.361 77.9519 107.554 79.0718 108.157 79.5961C108.821 80.1728 109.231 81.164 109.106 81.7961C108.77 84.2564 111.151 87.4893 117.309 92.8371C122.863 97.6607 123.873 98.3265 125.903 98.184C127.144 98.0969 129.222 98.6311 130.458 99.2811C131.814 100.036 133.53 100.255 135.077 99.6935C136.459 99.1999 137.864 99.0446 138.287 99.4116C138.71 99.7786 139.898 99.7519 140.941 99.282C141.993 98.9249 143.278 98.6647 143.91 98.7903C144.482 98.8635 146.246 98.173 147.935 97.2045C149.51 96.244 151.057 95.682 151.359 95.9442C151.601 96.1539 154.672 93.105 158.131 89.1223L164.368 81.9413L164.142 77.9338L163.803 73.9343L129.452 44.1016C110.617 27.7434 94.5826 14.1354 93.8821 13.8445C93.1815 13.5537 92.3397 13.6694 92.0776 13.9712C91.8156 14.2729 90.5306 14.5331 89.2217 14.4549L86.9502 14.3877L52.2924 54.0499C26.6567 83.4457 17.5012 94.2315 17.1011 95.7896Z" stroke="#B2B2B2" stroke-width="2"/>
</svg>
